<svg id="Layer_1" data-name="Layer 1" xmlns="http://www.w3.org/2000/svg" viewBox="0 0 100 100"><defs><style>.cls-1{fill:none;}</style></defs><rect class="cls-1" width="100" height="100"/><g id="Group_8" data-name="Group 8"><path id="Rectangle_1" data-name="Rectangle 1" d="M11.8,79.61H88.2a10.1,10.1,0,0,1,10,10.14v0h0A10.12,10.12,0,0,1,88.2,100H11.8a10.13,10.13,0,0,1-10-10.21h0a10.1,10.1,0,0,1,10-10.18Z"/><g id="_166_Heart_Love_Like_Twitter" data-name=" 166 Heart Love Like Twitter"><g id="Group_7" data-name="Group 7"><path id="Path_9" data-name="Path 9" d="M69.46,0A19.46,19.46,0,0,1,88.92,19.46v.12h0C88.92,39,69.46,50.14,50,69.6,30.54,50,11,38.92,11,19.58A19.49,19.49,0,0,1,30.46,0h.08C40.27,0,45.13,4.87,50,14.6,54.87,4.87,59.73,0,69.46,0Z"/></g></g></g></svg>