<svg id="Layer_1" data-name="Layer 1" xmlns="http://www.w3.org/2000/svg" viewBox="0 0 100 100"><defs><style>.cls-1{fill:none;}</style></defs><rect class="cls-1" width="100" height="100"/><g id="Group_6" data-name="Group 6"><g id="Group_5" data-name="Group 5"><g id="Group_4" data-name="Group 4"><path id="Rectangle_1" data-name="Rectangle 1" d="M12,79.74H88A10,10,0,0,1,98,89.81v0h0A10.07,10.07,0,0,1,88,100H12A10.07,10.07,0,0,1,2,89.85H2A10,10,0,0,1,12,79.74Z"/></g></g><path id="Path_7" data-name="Path 7" d="M90,38.77V56.48c0,7.31-4.52,13.19-10.12,13.19H58.67V52.32a6.38,6.38,0,0,0-5.39-7h-6.4a6.31,6.31,0,0,0-5.39,7V69.67H20.35C14.79,69.67,10,63.79,10,56.48V38.77a14.58,14.58,0,0,1,4.68-10.71L44.36,2.32a8,8,0,0,1,11.28,0L85.29,28.06A14.58,14.58,0,0,1,90,38.77Z"/></g></svg>