<svg id="Layer_1" data-name="Layer 1" xmlns="http://www.w3.org/2000/svg" xmlns:xlink="http://www.w3.org/1999/xlink" viewBox="0 0 100 100"><defs><style>.cls-1{fill:none;}.cls-2,.cls-4{fill-rule:evenodd;}.cls-2{fill:url(#radial-gradient);}.cls-3,.cls-4{fill:#fff;}</style><radialGradient id="radial-gradient" cx="-312.37" cy="-192" r="4.36" gradientTransform="matrix(25.87, 0, 0, -25.87, 8147.2, -4821.88)" gradientUnits="userSpaceOnUse"><stop offset="0" stop-color="#ff8100"/><stop offset="0.19" stop-color="#ff7209"/><stop offset="0.32" stop-color="#f55e16"/><stop offset="0.48" stop-color="#d92938"/><stop offset="1" stop-color="#9100ff"/></radialGradient></defs><rect class="cls-1" width="100" height="100"/><g id="iconfinder_3721672_instagram_icon" data-name="iconfinder 3721672 instagram icon"><rect id="Artboard10" class="cls-1" x="0.03" y="0.07" width="99.93" height="99.93"/><path id="Path_3159" data-name="Path 3159" class="cls-2" d="M90.4,29.83A20.22,20.22,0,0,0,70.19,9.63H29.8A20.21,20.21,0,0,0,9.6,29.83V70.22a20.21,20.21,0,0,0,20.2,20.2H70.19A20.22,20.22,0,0,0,90.4,70.22h0Z"/><path id="Path_3160" data-name="Path 3160" class="cls-3" d="M62,21.78a16.82,16.82,0,0,1,16.3,16.3q0,12,0,23.9A16.84,16.84,0,0,1,62,78.28q-12,0-23.9,0A16.81,16.81,0,0,1,21.74,62q0-11.94,0-23.9A16.8,16.8,0,0,1,38.05,21.76q11.94,0,23.9,0ZM38.16,25.59a13,13,0,0,0-12.6,12.52q0,11.93,0,23.85A12.9,12.9,0,0,0,38.07,74.47q11.93,0,23.85,0A12.88,12.88,0,0,0,74.44,62q0-11.93,0-23.85A13,13,0,0,0,61.92,25.59C54,25.57,46.08,25.59,38.16,25.59Z"/><path id="Path_3161" data-name="Path 3161" class="cls-3" d="M50.1,35.89A14.54,14.54,0,0,1,63.92,47.45,14.16,14.16,0,0,1,45.14,63.33,14.53,14.53,0,0,1,35.87,49.4,14.51,14.51,0,0,1,50,35.89Zm-.17,3.83a10.33,10.33,0,0,0-4,19.84,10.69,10.69,0,0,0,13.3-5,10.69,10.69,0,0,0-4.92-13.9A10.43,10.43,0,0,0,49.93,39.72Z"/><path id="Path_3162" data-name="Path 3162" class="cls-4" d="M68.18,34.79a3,3,0,0,0-2.94-2.94h-.18a3,3,0,0,0-2.94,2.94v.09a3,3,0,0,0,3,3h0a3,3,0,0,0,3-3Z"/></g></svg>