<svg id="Layer_1" data-name="Layer 1" xmlns="http://www.w3.org/2000/svg" viewBox="0 0 100 100"><defs><style>.cls-1{fill:none;}</style></defs><rect class="cls-1" width="100" height="100"/><path id="Path_3153" data-name="Path 3153" d="M39.32,93a11.67,11.67,0,0,0,21.35,0Z"/><path id="Path_3154" data-name="Path 3154" d="M50,7.38a26.14,26.14,0,0,1,9,1.56V8.6A8.63,8.63,0,0,0,50.37,0h-.72a8.63,8.63,0,0,0-8.6,8.6v.34A26.32,26.32,0,0,1,50,7.38Z"/><path id="Path_3155" data-name="Path 3155" d="M90.61,88.51H9.41A3.31,3.31,0,0,1,6.15,86a3.12,3.12,0,0,1,1.73-3.56,17.16,17.16,0,0,0,5.24-7.07c4.52-9.46,5.47-22.8,5.47-32.31a31.41,31.41,0,1,1,62.82-.13h0v.13c0,9.51,1,22.85,5.47,32.31a17.16,17.16,0,0,0,5.24,7.07A3.12,3.12,0,0,1,93.85,86,3.32,3.32,0,0,1,90.61,88.51Zm1.56-6.06Z"/></svg>