<svg id="Layer_1" data-name="Layer 1" xmlns="http://www.w3.org/2000/svg" viewBox="0 0 100 100"><defs><style>.cls-1{fill:none;}</style></defs><rect class="cls-1" width="100" height="100"/><g id="Group_10" data-name="Group 10"><path id="Rectangle_1" data-name="Rectangle 1" d="M12,79.7H88A10.06,10.06,0,0,1,98,89.79v0h0A10.09,10.09,0,0,1,88,100H12A10.09,10.09,0,0,1,2,89.83H2a10.06,10.06,0,0,1,10-10.13Z"/><g id="Group_9" data-name="Group 9"><circle id="Ellipse_1" data-name="Ellipse 1" cx="50" cy="19.14" r="19.14"/><path id="Path_10" data-name="Path 10" d="M81.63,62.69v3.48a3.77,3.77,0,0,1-4,3.49H22.34a3.77,3.77,0,0,1-4-3.49V62.69c0-11.57,10.61-20.9,23.7-20.9h16C71,41.79,81.63,51.12,81.63,62.69Z"/></g></g></svg>