<svg id="Layer_1" data-name="Layer 1" xmlns="http://www.w3.org/2000/svg" viewBox="0 0 100 100"><defs><style>.cls-1{fill:none;}</style></defs><rect class="cls-1" width="100" height="100"/><g id="Layer_3" data-name="Layer 3"><path id="Path_42" data-name="Path 42" d="M33.46,70.41A33.21,33.21,0,1,1,66.67,37.2h0A33.21,33.21,0,0,1,33.46,70.41Zm0-59.78A26.57,26.57,0,1,0,60,37.2,26.57,26.57,0,0,0,33.46,10.63Z"/><path id="Path_43" data-name="Path 43" d="M96.33,78.51,76,61.44A10,10,0,0,0,63.15,76.73L83.51,93.8A10,10,0,0,0,96.33,78.52Zm-3.09,7.64a3.45,3.45,0,0,1-.76,2.16,3.33,3.33,0,0,1-4.68.43h0L67.44,71.66a3.33,3.33,0,0,1,1.81-5.88h.31a3.36,3.36,0,0,1,2.13.76L92.05,83.65a3.21,3.21,0,0,1,1.19,2.25Z"/><path id="Path_44" data-name="Path 44" d="M94.44,86.67V87a3.82,3.82,0,0,1-.84,2.38,3.56,3.56,0,0,1-5,.5l-.07-.06L66.34,70.9a3.7,3.7,0,0,1,2-6.51h.32a3.63,3.63,0,0,1,2.32.84L93.14,84.16A3.57,3.57,0,0,1,94.44,86.67Z"/><path id="Path_45" data-name="Path 45" d="M63.34,67.09a3.36,3.36,0,0,1-2.11-.75l-7.84-6.48a3.32,3.32,0,1,1,4.25-5.11h0l7.77,6.47a3.34,3.34,0,0,1,.42,4.68h0A3.36,3.36,0,0,1,63.34,67.09Z"/></g><g id="Ellipse_216" data-name="Ellipse 216"><path d="M33.79,58.37a21,21,0,1,1,21-21A21,21,0,0,1,33.79,58.37Zm0-37.73A16.77,16.77,0,1,0,50.56,37.41,16.79,16.79,0,0,0,33.79,20.64Z"/><path d="M33.79,56.27A18.87,18.87,0,1,1,52.65,37.41,18.88,18.88,0,0,1,33.79,56.27Zm0-33.53A14.67,14.67,0,1,0,48.46,37.41,14.69,14.69,0,0,0,33.79,22.74Z"/></g></svg>