<svg id="Layer_1" data-name="Layer 1" xmlns="http://www.w3.org/2000/svg" viewBox="0 0 100 100"><defs><style>.cls-1{fill:none;}</style></defs><rect class="cls-1" width="100" height="100"/><g id="Group_2" data-name="Group 2"><path id="Path_15" data-name="Path 15" d="M34.21,33,2.67,36.49a3,3,0,0,0-2.53,2A3,3,0,0,0,1,41.66C10.36,50.22,24.44,63,24.44,63S20.57,81.67,18,94.1a3,3,0,0,0,1.2,3,3,3,0,0,0,3.21.17L50,81.59,77.57,97.3a3,3,0,0,0,4.06-1.08A3,3,0,0,0,82,94.11C79.4,81.67,75.56,63,75.56,63S89.65,50.22,99,41.68a3,3,0,0,0,.84-3.14,3,3,0,0,0-2.57-2L65.75,33,52.66,4.08a3,3,0,0,0-2.73-1.79,3,3,0,0,0-2.72,1.79C42,15.64,34.21,33,34.21,33Z"/></g></svg>