<svg id="Layer_1" data-name="Layer 1" xmlns="http://www.w3.org/2000/svg" viewBox="0 0 100 100"><defs><style>.cls-1{fill:none;}</style></defs><rect class="cls-1" width="100" height="100"/><g id="TOP_Crown" data-name="TOP Crown"><path id="Path_11" data-name="Path 11" d="M86.24,40.47V36.9L82.92,35a3.42,3.42,0,0,1-1.75-2.95V30.18a3.41,3.41,0,0,1,1.75-2.95l1.62-.91a3.41,3.41,0,0,0,1.7-2.95V5.23a3.4,3.4,0,0,0-5.85-2.32l-12,12.45a3.41,3.41,0,0,1-4.81.13,3,3,0,0,1-.38-.42L52.7,1.33A3.41,3.41,0,0,0,47.92.71a3.64,3.64,0,0,0-.62.62L36.84,15.24a3.41,3.41,0,0,1-4.77.66,3.7,3.7,0,0,1-.42-.37l-12-12.46A3.41,3.41,0,0,0,13.76,5.4v18a3.41,3.41,0,0,0,1.7,2.95l1.62.91a3.41,3.41,0,0,1,1.75,2.95v1.91A3.42,3.42,0,0,1,17.08,35L13.76,36.9v3.57ZM51.7,26.28l1.66.95a3.48,3.48,0,0,1,1.7,2.95v1.91A3.48,3.48,0,0,1,53.36,35L51.7,36a3.29,3.29,0,0,1-3.4,0l-1.66-1a3.48,3.48,0,0,1-1.7-2.95V30.18a3.48,3.48,0,0,1,1.7-2.95l1.66-.95A3.49,3.49,0,0,1,51.7,26.28Z"/><path id="Path_12" data-name="Path 12" d="M86.24,65.13V59.78a3.41,3.41,0,0,0-3.4-3.41H69.72V51.76H82.84a3.4,3.4,0,0,0,3.4-3.4h0a3.4,3.4,0,0,0-3.4-3.4H17.16a3.4,3.4,0,0,0-3.4,3.4h0a3.4,3.4,0,0,0,3.4,3.4H30.28v4.61H17.16a3.41,3.41,0,0,0-3.4,3.41v5.35a3.4,3.4,0,0,0,3.4,3.4H82.84A3.4,3.4,0,0,0,86.24,65.13ZM59.13,51.76v4.61H40.87V51.76Z"/><path id="Rectangle_1" data-name="Rectangle 1" d="M10.56,79H89.44A10.42,10.42,0,0,1,99.81,89.41v0h0A10.46,10.46,0,0,1,89.44,100H10.56A10.46,10.46,0,0,1,.19,89.46h0A10.42,10.42,0,0,1,10.52,79Z"/></g></svg>