<svg id="Layer_1" data-name="Layer 1" xmlns="http://www.w3.org/2000/svg" viewBox="0 0 100 100"><defs><style>.cls-1{fill:none;}.cls-2{fill:#5acf5f;}.cls-3{fill:#fcfcfc;}</style></defs><rect class="cls-1" width="100" height="100"/><g id="_13-whatsapp" data-name="13-whatsapp"><g id="Group_2665" data-name="Group 2665"><g id="Group_2664" data-name="Group 2664"><path id="Path_3157" data-name="Path 3157" class="cls-2" d="M50.06.07h0A49.94,49.94,0,0,0,9.73,79.27L3.53,97.82l19.14-6.14a49.26,49.26,0,0,0,27.4,8.25,49.93,49.93,0,0,0,0-99.86Z"/><path id="Path_3158" data-name="Path 3158" class="cls-3" d="M79,70.58a14.06,14.06,0,0,1-9.77,7c-2.61.56-6,1-17.45-3.75C37.2,67.8,27.76,52.87,27,51.9a28.47,28.47,0,0,1-5.91-15.06,16,16,0,0,1,5.09-12.15,7.2,7.2,0,0,1,5.09-1.78c.62,0,1.17,0,1.67.05,1.46.07,2.2.15,3.16,2.47,1.21,2.9,4.13,10.07,4.48,10.8a3,3,0,0,1,.21,2.7,8.54,8.54,0,0,1-1.61,2.29c-.74.85-1.43,1.5-2.17,2.41s-1.42,1.64-.58,3.11a43.89,43.89,0,0,0,8.08,10.07A36.66,36.66,0,0,0,56.21,64a3.16,3.16,0,0,0,3.51-.56,61.35,61.35,0,0,0,3.9-5.17,2.77,2.77,0,0,1,3.56-1.07c1.35.47,8.46,4,9.92,4.73s2.43,1.07,2.79,1.7A12.47,12.47,0,0,1,79,70.6Z"/></g></g></g></svg>